<svg width="56" height="56" viewBox="0 0 56 56" fill="none" xmlns="http://www.w3.org/2000/svg">
<path d="M37.283 21.3366C37.9239 21.9774 37.9239 23.0163 37.283 23.6568L26.2767 34.6634C25.6358 35.304 24.5973 35.304 23.9564 34.6634L18.717 29.4237C18.0761 28.7831 18.0761 27.7443 18.717 27.1037C19.3576 26.4629 20.3964 26.4629 21.037 27.1037L25.1164 31.1832L34.9627 21.3366C35.6036 20.696 36.6424 20.696 37.283 21.3366ZM49 28C49 39.6077 39.6061 49 28 49C16.3923 49 7 39.6061 7 28C7 16.3923 16.3939 7 28 7C39.6077 7 49 16.3939 49 28ZM45.7188 28C45.7188 18.2059 37.7928 10.2812 28 10.2812C18.2059 10.2812 10.2812 18.2072 10.2812 28C10.2812 37.7941 18.2072 45.7188 28 45.7188C37.7941 45.7188 45.7188 37.7928 45.7188 28Z" fill="white"/>
</svg>
