<svg width="56" height="56" viewBox="0 0 56 56" fill="none" xmlns="http://www.w3.org/2000/svg">
<path d="M47.25 26.25C46.284 26.25 45.5 27.034 45.5 28C45.5 37.6495 37.6495 45.5 28 45.5C18.3505 45.5 10.5 37.6495 10.5 28C10.5 18.3505 18.3505 10.5 28 10.5C32.6979 10.5 37.1079 12.3358 40.418 15.6695C41.0988 16.3546 42.2074 16.359 42.8925 15.6783C43.5785 14.9975 43.582 13.8889 42.9012 13.2029C38.9296 9.20325 33.6367 7 28 7C16.4202 7 7 16.4202 7 28C7 39.5798 16.4202 49 28 49C39.5789 49 49 39.5798 49 28C49 27.034 48.216 26.25 47.25 26.25Z" fill="white"/>
<path d="M30.4745 27.9998L34.4873 23.9871C35.1706 23.3037 35.1706 22.196 34.4873 21.5126C33.8039 20.8292 32.6961 20.8292 32.0128 21.5126L28 25.5253L23.9873 21.5126C23.3048 20.8292 22.1953 20.8292 21.5128 21.5126C20.8294 22.196 20.8294 23.3037 21.5128 23.9871L25.5255 27.9998L21.5128 32.0126C20.8294 32.696 20.8294 33.8037 21.5128 34.4871C21.854 34.8292 22.302 34.9998 22.75 34.9998C23.198 34.9998 23.646 34.8292 23.9873 34.4871L28 30.4743L32.0128 34.4871C32.3549 34.8292 32.802 34.9998 33.25 34.9998C33.698 34.9998 34.1451 34.8292 34.4873 34.4871C35.1706 33.8037 35.1706 32.696 34.4873 32.0126L30.4745 27.9998Z" fill="white"/>
</svg>
