<svg width="56" height="56" viewBox="0 0 56 56" fill="none" xmlns="http://www.w3.org/2000/svg">
<path d="M43.3208 35.0995C49.4949 28.9254 49.3809 18.7656 43.0665 12.4513C36.7521 6.13689 26.5924 6.02283 20.4182 12.197C14.6908 17.9245 14.3844 27.0778 19.4096 33.4138L16.6907 36.1326L13.9963 33.4382C13.2526 32.6946 12.0589 32.6812 11.3318 33.4083C10.6046 34.1355 10.618 35.3291 11.3617 36.0728L14.0561 38.7672L11.4215 41.4018C10.6944 42.129 10.7078 43.3227 11.4515 44.0663C12.1951 44.81 13.3888 44.8234 14.116 44.0962L16.7505 41.4616L19.445 44.1561C20.1886 44.8997 21.3823 44.9131 22.1095 44.186C22.8366 43.4588 22.8232 42.2651 22.0795 41.5215L19.3851 38.8271L22.104 36.1082C28.44 41.1333 37.5933 40.827 43.3208 35.0995ZM23.1127 14.8914C27.8338 10.1703 35.6035 10.2575 40.4319 15.0859C45.2603 19.9142 45.3475 27.684 40.6264 32.4051C35.9052 37.1263 28.1355 37.039 23.3071 32.2107C18.4787 27.3823 18.3915 19.6126 23.1127 14.8914Z" fill="white"/>
</svg>
