<svg width="56" height="56" viewBox="0 0 56 56" fill="none" xmlns="http://www.w3.org/2000/svg">
<path d="M49.9768 7.56071C49.9571 7.4063 49.923 7.25758 49.8666 7.11804C49.8648 7.11454 49.8648 7.10973 49.864 7.10536C49.864 7.10448 49.8631 7.10361 49.8622 7.10273C49.8001 6.95576 49.7152 6.82235 49.6194 6.69856C49.5958 6.66925 49.5726 6.64038 49.5477 6.61282C49.4454 6.49734 49.3342 6.39061 49.2052 6.30357C49.2017 6.30094 49.1973 6.30007 49.1938 6.29744C49.0692 6.21521 48.9314 6.1531 48.787 6.10411C48.7512 6.09142 48.7162 6.08049 48.6794 6.07086C48.5281 6.02974 48.3724 6 48.2083 6H35.6667C34.6777 6 33.875 6.80266 33.875 7.79167C33.875 8.78067 34.6777 9.58333 35.6667 9.58333H43.8823L33.1887 20.2769C30.3372 17.9962 26.8264 16.75 23.125 16.75C14.234 16.75 7 23.984 7 32.875C7 41.766 14.234 49 23.125 49C32.016 49 39.25 41.766 39.25 32.875C39.25 29.1753 38.0047 25.6655 35.7222 22.8113L46.4167 12.1169V20.3333C46.4167 21.3223 47.2193 22.125 48.2083 22.125C49.1973 22.125 50 21.3223 50 20.3333V7.79167C50 7.75405 49.9912 7.71818 49.9891 7.68144C49.9864 7.64032 49.9821 7.60095 49.9768 7.56071ZM23.125 45.4167C16.209 45.4167 10.5833 39.791 10.5833 32.875C10.5833 25.959 16.209 20.3333 23.125 20.3333C26.4734 20.3333 29.6259 21.6368 31.9963 23.9989C34.3632 26.3741 35.6667 29.5266 35.6667 32.875C35.6667 39.791 30.041 45.4167 23.125 45.4167Z" fill="white"/>
</svg>
