<svg width="23" height="26" viewBox="0 0 23 26" fill="none" xmlns="http://www.w3.org/2000/svg">
<mask id="path-1-outside-1" maskUnits="userSpaceOnUse" x="0" y="0" width="23" height="26" fill="black">
<rect fill="white" width="23" height="26"/>
<path d="M21.4871 11.804C21.3285 10.9054 20.9662 10.0551 20.428 9.31835C19.8897 8.58156 19.1899 7.97785 18.3821 7.55355L14.9996 5.76145V3C14.999 2.46975 14.7881 1.96139 14.4132 1.58644C14.0382 1.2115 13.5299 1.0006 12.9996 1H9.79963C9.26938 1.0006 8.76102 1.2115 8.38608 1.58644C8.01113 1.96139 7.80023 2.46975 7.79963 3V5.76145L4.41738 7.5535C3.60959 7.9778 2.90972 8.5815 2.37149 9.3183C1.83325 10.0551 1.47095 10.9054 1.31238 11.804C0.837382 14.4523 0.669182 18.8434 2.56308 24.7227C2.58903 24.8032 2.63984 24.8734 2.70822 24.9233C2.7766 24.9731 2.85902 25 2.94363 25H19.8556C19.9403 25 20.0227 24.9731 20.0911 24.9233C20.1595 24.8735 20.2104 24.8032 20.2363 24.7227C22.1302 18.8434 21.9618 14.4523 21.4871 11.804ZM8.59963 5.7919C10.4796 5.7157 11.6208 5.1146 12.1433 4.75335C12.6892 5.32289 13.4162 5.6848 14.1996 5.77705V6.6C14.199 7.13025 13.9881 7.63861 13.6132 8.01356C13.2382 8.3885 12.7299 8.5994 12.1996 8.6H10.5996C10.0694 8.5994 9.56102 8.3885 9.18608 8.01356C8.81113 7.63861 8.60023 7.13025 8.59963 6.6V5.7919ZM8.59963 3C8.59999 2.68185 8.72653 2.37683 8.9515 2.15187C9.17647 1.9269 9.48148 1.80036 9.79963 1.8H12.9996C13.3178 1.80036 13.6228 1.9269 13.8478 2.15187C14.0727 2.37683 14.1993 2.68185 14.1996 3V4.97045C13.5359 4.86928 12.9378 4.51328 12.5324 3.9781C12.4999 3.92878 12.4569 3.88731 12.4064 3.85669C12.3559 3.82606 12.2992 3.80705 12.2405 3.80104C12.1818 3.79502 12.1224 3.80215 12.0668 3.8219C12.0111 3.84166 11.9605 3.87354 11.9187 3.91525C11.9159 3.91795 11.6337 4.18895 11.0387 4.45645C10.5437 4.6791 9.73528 4.94015 8.59943 4.99115L8.59963 3ZM9.20023 24.2C8.55264 24.2 7.91303 24.0571 7.32705 23.7814C6.74108 23.5057 6.22317 23.1041 5.81031 22.6052C5.39745 22.1062 5.09981 21.5223 4.93863 20.8951C4.77745 20.2679 4.75671 19.6129 4.87788 18.9767L5.29368 16.7938C5.57099 16.9304 5.87615 17.001 6.18528 17H9.39963C9.70999 16.9993 10.016 16.9267 10.2936 16.7879C10.5712 16.6491 10.8128 16.4478 10.9996 16.2L11.3996 15.6667L11.7996 16.2C11.9864 16.4478 12.2281 16.6491 12.5057 16.7879C12.7833 16.9267 13.0893 16.9993 13.3996 17H16.614C16.9231 17.001 17.2283 16.9304 17.5056 16.7938L17.9214 18.9767C18.0426 19.6129 18.0218 20.2679 17.8606 20.8951C17.6995 21.5223 17.4018 22.1062 16.9889 22.6052C16.5761 23.1041 16.0582 23.5057 15.4722 23.7814C14.8862 24.0571 14.2466 24.2 13.599 24.2H9.20023ZM19.5631 24.2H16.3721C17.2557 23.6422 17.9509 22.8315 18.3673 21.8732C18.7838 20.9149 18.9022 19.8535 18.7071 18.827L18.2082 16.2078C18.2592 16.1402 18.306 16.0695 18.3482 15.9961C18.5255 15.6917 18.6184 15.3455 18.6172 14.9933C18.616 14.641 18.5208 14.2954 18.3415 13.9923L16.9451 11.5984C16.8913 11.5076 16.8037 11.4417 16.7015 11.4152C16.5992 11.3886 16.4907 11.4036 16.3994 11.4568C16.3082 11.5101 16.2417 11.5972 16.2145 11.6992C16.1873 11.8013 16.2015 11.91 16.2541 12.0016L17.6505 14.3954C17.7569 14.5777 17.8133 14.7849 17.814 14.996C17.8147 15.2071 17.7597 15.4146 17.6546 15.5977C17.5494 15.7807 17.3979 15.9328 17.2152 16.0386C17.0324 16.1443 16.8251 16.2 16.614 16.2H13.3996C13.2134 16.1996 13.0298 16.156 12.8633 16.0727C12.6967 15.9894 12.5517 15.8687 12.4396 15.72L11.7196 14.76C11.6824 14.7103 11.6341 14.67 11.5785 14.6422C11.523 14.6145 11.4617 14.6 11.3996 14.6C11.3375 14.6 11.2763 14.6145 11.2207 14.6422C11.1652 14.67 11.1169 14.7103 11.0796 14.76L10.3596 15.72C10.2476 15.8687 10.1025 15.9894 9.93599 16.0727C9.76943 16.156 9.58585 16.1996 9.39963 16.2H6.18528C5.97418 16.2 5.76681 16.1443 5.58411 16.0386C5.40141 15.9328 5.24984 15.7807 5.1447 15.5977C5.03955 15.4146 4.98456 15.2071 4.98527 14.996C4.98598 14.7849 5.04236 14.5777 5.14873 14.3954L6.54513 12.0016C6.57202 11.9562 6.58967 11.9059 6.59706 11.8537C6.60444 11.8014 6.60142 11.7482 6.58817 11.6972C6.57492 11.6461 6.5517 11.5982 6.51984 11.5561C6.48798 11.5141 6.44812 11.4787 6.40255 11.4522C6.35698 11.4256 6.3066 11.4083 6.25432 11.4012C6.20203 11.3942 6.14887 11.3976 6.0979 11.4112C6.04692 11.4248 5.99914 11.4483 5.95731 11.4805C5.91547 11.5126 5.88041 11.5527 5.85413 11.5984L4.45773 13.9923C4.27837 14.2954 4.18318 14.641 4.18199 14.9933C4.18081 15.3455 4.27367 15.6917 4.45098 15.9961C4.49323 16.0695 4.53999 16.1402 4.59098 16.2078L4.09208 18.827C3.89705 19.8535 4.01546 20.915 4.43192 21.8732C4.84838 22.8315 5.5436 23.6423 6.42713 24.2H3.23618C1.48638 18.6178 1.64843 14.4623 2.09963 11.945C2.23718 11.166 2.55135 10.4289 3.01803 9.79019C3.4847 9.15149 4.09149 8.62817 4.79183 8.2604L7.80123 6.66585C7.81912 7.39648 8.12169 8.09122 8.64445 8.60198C9.1672 9.11273 9.86878 9.39909 10.5996 9.4H12.1996C12.9305 9.39907 13.632 9.11272 14.1548 8.60198C14.6775 8.09124 14.9801 7.39651 14.998 6.6659L18.0074 8.2605C18.7078 8.62826 19.3145 9.15156 19.7812 9.79025C20.2479 10.4289 20.5621 11.166 20.6996 11.945C21.1508 14.4623 21.3129 18.6178 19.5631 24.2Z"/>
</mask>
<path d="M21.4871 11.804C21.3285 10.9054 20.9662 10.0551 20.428 9.31835C19.8897 8.58156 19.1899 7.97785 18.3821 7.55355L14.9996 5.76145V3C14.999 2.46975 14.7881 1.96139 14.4132 1.58644C14.0382 1.2115 13.5299 1.0006 12.9996 1H9.79963C9.26938 1.0006 8.76102 1.2115 8.38608 1.58644C8.01113 1.96139 7.80023 2.46975 7.79963 3V5.76145L4.41738 7.5535C3.60959 7.9778 2.90972 8.5815 2.37149 9.3183C1.83325 10.0551 1.47095 10.9054 1.31238 11.804C0.837382 14.4523 0.669182 18.8434 2.56308 24.7227C2.58903 24.8032 2.63984 24.8734 2.70822 24.9233C2.7766 24.9731 2.85902 25 2.94363 25H19.8556C19.9403 25 20.0227 24.9731 20.0911 24.9233C20.1595 24.8735 20.2104 24.8032 20.2363 24.7227C22.1302 18.8434 21.9618 14.4523 21.4871 11.804ZM8.59963 5.7919C10.4796 5.7157 11.6208 5.1146 12.1433 4.75335C12.6892 5.32289 13.4162 5.6848 14.1996 5.77705V6.6C14.199 7.13025 13.9881 7.63861 13.6132 8.01356C13.2382 8.3885 12.7299 8.5994 12.1996 8.6H10.5996C10.0694 8.5994 9.56102 8.3885 9.18608 8.01356C8.81113 7.63861 8.60023 7.13025 8.59963 6.6V5.7919ZM8.59963 3C8.59999 2.68185 8.72653 2.37683 8.9515 2.15187C9.17647 1.9269 9.48148 1.80036 9.79963 1.8H12.9996C13.3178 1.80036 13.6228 1.9269 13.8478 2.15187C14.0727 2.37683 14.1993 2.68185 14.1996 3V4.97045C13.5359 4.86928 12.9378 4.51328 12.5324 3.9781C12.4999 3.92878 12.4569 3.88731 12.4064 3.85669C12.3559 3.82606 12.2992 3.80705 12.2405 3.80104C12.1818 3.79502 12.1224 3.80215 12.0668 3.8219C12.0111 3.84166 11.9605 3.87354 11.9187 3.91525C11.9159 3.91795 11.6337 4.18895 11.0387 4.45645C10.5437 4.6791 9.73528 4.94015 8.59943 4.99115L8.59963 3ZM9.20023 24.2C8.55264 24.2 7.91303 24.0571 7.32705 23.7814C6.74108 23.5057 6.22317 23.1041 5.81031 22.6052C5.39745 22.1062 5.09981 21.5223 4.93863 20.8951C4.77745 20.2679 4.75671 19.6129 4.87788 18.9767L5.29368 16.7938C5.57099 16.9304 5.87615 17.001 6.18528 17H9.39963C9.70999 16.9993 10.016 16.9267 10.2936 16.7879C10.5712 16.6491 10.8128 16.4478 10.9996 16.2L11.3996 15.6667L11.7996 16.2C11.9864 16.4478 12.2281 16.6491 12.5057 16.7879C12.7833 16.9267 13.0893 16.9993 13.3996 17H16.614C16.9231 17.001 17.2283 16.9304 17.5056 16.7938L17.9214 18.9767C18.0426 19.6129 18.0218 20.2679 17.8606 20.8951C17.6995 21.5223 17.4018 22.1062 16.9889 22.6052C16.5761 23.1041 16.0582 23.5057 15.4722 23.7814C14.8862 24.0571 14.2466 24.2 13.599 24.2H9.20023ZM19.5631 24.2H16.3721C17.2557 23.6422 17.9509 22.8315 18.3673 21.8732C18.7838 20.9149 18.9022 19.8535 18.7071 18.827L18.2082 16.2078C18.2592 16.1402 18.306 16.0695 18.3482 15.9961C18.5255 15.6917 18.6184 15.3455 18.6172 14.9933C18.616 14.641 18.5208 14.2954 18.3415 13.9923L16.9451 11.5984C16.8913 11.5076 16.8037 11.4417 16.7015 11.4152C16.5992 11.3886 16.4907 11.4036 16.3994 11.4568C16.3082 11.5101 16.2417 11.5972 16.2145 11.6992C16.1873 11.8013 16.2015 11.91 16.2541 12.0016L17.6505 14.3954C17.7569 14.5777 17.8133 14.7849 17.814 14.996C17.8147 15.2071 17.7597 15.4146 17.6546 15.5977C17.5494 15.7807 17.3979 15.9328 17.2152 16.0386C17.0324 16.1443 16.8251 16.2 16.614 16.2H13.3996C13.2134 16.1996 13.0298 16.156 12.8633 16.0727C12.6967 15.9894 12.5517 15.8687 12.4396 15.72L11.7196 14.76C11.6824 14.7103 11.6341 14.67 11.5785 14.6422C11.523 14.6145 11.4617 14.6 11.3996 14.6C11.3375 14.6 11.2763 14.6145 11.2207 14.6422C11.1652 14.67 11.1169 14.7103 11.0796 14.76L10.3596 15.72C10.2476 15.8687 10.1025 15.9894 9.93599 16.0727C9.76943 16.156 9.58585 16.1996 9.39963 16.2H6.18528C5.97418 16.2 5.76681 16.1443 5.58411 16.0386C5.40141 15.9328 5.24984 15.7807 5.1447 15.5977C5.03955 15.4146 4.98456 15.2071 4.98527 14.996C4.98598 14.7849 5.04236 14.5777 5.14873 14.3954L6.54513 12.0016C6.57202 11.9562 6.58967 11.9059 6.59706 11.8537C6.60444 11.8014 6.60142 11.7482 6.58817 11.6972C6.57492 11.6461 6.5517 11.5982 6.51984 11.5561C6.48798 11.5141 6.44812 11.4787 6.40255 11.4522C6.35698 11.4256 6.3066 11.4083 6.25432 11.4012C6.20203 11.3942 6.14887 11.3976 6.0979 11.4112C6.04692 11.4248 5.99914 11.4483 5.95731 11.4805C5.91547 11.5126 5.88041 11.5527 5.85413 11.5984L4.45773 13.9923C4.27837 14.2954 4.18318 14.641 4.18199 14.9933C4.18081 15.3455 4.27367 15.6917 4.45098 15.9961C4.49323 16.0695 4.53999 16.1402 4.59098 16.2078L4.09208 18.827C3.89705 19.8535 4.01546 20.915 4.43192 21.8732C4.84838 22.8315 5.5436 23.6423 6.42713 24.2H3.23618C1.48638 18.6178 1.64843 14.4623 2.09963 11.945C2.23718 11.166 2.55135 10.4289 3.01803 9.79019C3.4847 9.15149 4.09149 8.62817 4.79183 8.2604L7.80123 6.66585C7.81912 7.39648 8.12169 8.09122 8.64445 8.60198C9.1672 9.11273 9.86878 9.39909 10.5996 9.4H12.1996C12.9305 9.39907 13.632 9.11272 14.1548 8.60198C14.6775 8.09124 14.9801 7.39651 14.998 6.6659L18.0074 8.2605C18.7078 8.62826 19.3145 9.15156 19.7812 9.79025C20.2479 10.4289 20.5621 11.166 20.6996 11.945C21.1508 14.4623 21.3129 18.6178 19.5631 24.2Z" fill="black"/>
<path d="M21.4871 11.804C21.3285 10.9054 20.9662 10.0551 20.428 9.31835C19.8897 8.58156 19.1899 7.97785 18.3821 7.55355L14.9996 5.76145V3C14.999 2.46975 14.7881 1.96139 14.4132 1.58644C14.0382 1.2115 13.5299 1.0006 12.9996 1H9.79963C9.26938 1.0006 8.76102 1.2115 8.38608 1.58644C8.01113 1.96139 7.80023 2.46975 7.79963 3V5.76145L4.41738 7.5535C3.60959 7.9778 2.90972 8.5815 2.37149 9.3183C1.83325 10.0551 1.47095 10.9054 1.31238 11.804C0.837382 14.4523 0.669182 18.8434 2.56308 24.7227C2.58903 24.8032 2.63984 24.8734 2.70822 24.9233C2.7766 24.9731 2.85902 25 2.94363 25H19.8556C19.9403 25 20.0227 24.9731 20.0911 24.9233C20.1595 24.8735 20.2104 24.8032 20.2363 24.7227C22.1302 18.8434 21.9618 14.4523 21.4871 11.804ZM8.59963 5.7919C10.4796 5.7157 11.6208 5.1146 12.1433 4.75335C12.6892 5.32289 13.4162 5.6848 14.1996 5.77705V6.6C14.199 7.13025 13.9881 7.63861 13.6132 8.01356C13.2382 8.3885 12.7299 8.5994 12.1996 8.6H10.5996C10.0694 8.5994 9.56102 8.3885 9.18608 8.01356C8.81113 7.63861 8.60023 7.13025 8.59963 6.6V5.7919ZM8.59963 3C8.59999 2.68185 8.72653 2.37683 8.9515 2.15187C9.17647 1.9269 9.48148 1.80036 9.79963 1.8H12.9996C13.3178 1.80036 13.6228 1.9269 13.8478 2.15187C14.0727 2.37683 14.1993 2.68185 14.1996 3V4.97045C13.5359 4.86928 12.9378 4.51328 12.5324 3.9781C12.4999 3.92878 12.4569 3.88731 12.4064 3.85669C12.3559 3.82606 12.2992 3.80705 12.2405 3.80104C12.1818 3.79502 12.1224 3.80215 12.0668 3.8219C12.0111 3.84166 11.9605 3.87354 11.9187 3.91525C11.9159 3.91795 11.6337 4.18895 11.0387 4.45645C10.5437 4.6791 9.73528 4.94015 8.59943 4.99115L8.59963 3ZM9.20023 24.2C8.55264 24.2 7.91303 24.0571 7.32705 23.7814C6.74108 23.5057 6.22317 23.1041 5.81031 22.6052C5.39745 22.1062 5.09981 21.5223 4.93863 20.8951C4.77745 20.2679 4.75671 19.6129 4.87788 18.9767L5.29368 16.7938C5.57099 16.9304 5.87615 17.001 6.18528 17H9.39963C9.70999 16.9993 10.016 16.9267 10.2936 16.7879C10.5712 16.6491 10.8128 16.4478 10.9996 16.2L11.3996 15.6667L11.7996 16.2C11.9864 16.4478 12.2281 16.6491 12.5057 16.7879C12.7833 16.9267 13.0893 16.9993 13.3996 17H16.614C16.9231 17.001 17.2283 16.9304 17.5056 16.7938L17.9214 18.9767C18.0426 19.6129 18.0218 20.2679 17.8606 20.8951C17.6995 21.5223 17.4018 22.1062 16.9889 22.6052C16.5761 23.1041 16.0582 23.5057 15.4722 23.7814C14.8862 24.0571 14.2466 24.2 13.599 24.2H9.20023ZM19.5631 24.2H16.3721C17.2557 23.6422 17.9509 22.8315 18.3673 21.8732C18.7838 20.9149 18.9022 19.8535 18.7071 18.827L18.2082 16.2078C18.2592 16.1402 18.306 16.0695 18.3482 15.9961C18.5255 15.6917 18.6184 15.3455 18.6172 14.9933C18.616 14.641 18.5208 14.2954 18.3415 13.9923L16.9451 11.5984C16.8913 11.5076 16.8037 11.4417 16.7015 11.4152C16.5992 11.3886 16.4907 11.4036 16.3994 11.4568C16.3082 11.5101 16.2417 11.5972 16.2145 11.6992C16.1873 11.8013 16.2015 11.91 16.2541 12.0016L17.6505 14.3954C17.7569 14.5777 17.8133 14.7849 17.814 14.996C17.8147 15.2071 17.7597 15.4146 17.6546 15.5977C17.5494 15.7807 17.3979 15.9328 17.2152 16.0386C17.0324 16.1443 16.8251 16.2 16.614 16.2H13.3996C13.2134 16.1996 13.0298 16.156 12.8633 16.0727C12.6967 15.9894 12.5517 15.8687 12.4396 15.72L11.7196 14.76C11.6824 14.7103 11.6341 14.67 11.5785 14.6422C11.523 14.6145 11.4617 14.6 11.3996 14.6C11.3375 14.6 11.2763 14.6145 11.2207 14.6422C11.1652 14.67 11.1169 14.7103 11.0796 14.76L10.3596 15.72C10.2476 15.8687 10.1025 15.9894 9.93599 16.0727C9.76943 16.156 9.58585 16.1996 9.39963 16.2H6.18528C5.97418 16.2 5.76681 16.1443 5.58411 16.0386C5.40141 15.9328 5.24984 15.7807 5.1447 15.5977C5.03955 15.4146 4.98456 15.2071 4.98527 14.996C4.98598 14.7849 5.04236 14.5777 5.14873 14.3954L6.54513 12.0016C6.57202 11.9562 6.58967 11.9059 6.59706 11.8537C6.60444 11.8014 6.60142 11.7482 6.58817 11.6972C6.57492 11.6461 6.5517 11.5982 6.51984 11.5561C6.48798 11.5141 6.44812 11.4787 6.40255 11.4522C6.35698 11.4256 6.3066 11.4083 6.25432 11.4012C6.20203 11.3942 6.14887 11.3976 6.0979 11.4112C6.04692 11.4248 5.99914 11.4483 5.95731 11.4805C5.91547 11.5126 5.88041 11.5527 5.85413 11.5984L4.45773 13.9923C4.27837 14.2954 4.18318 14.641 4.18199 14.9933C4.18081 15.3455 4.27367 15.6917 4.45098 15.9961C4.49323 16.0695 4.53999 16.1402 4.59098 16.2078L4.09208 18.827C3.89705 19.8535 4.01546 20.915 4.43192 21.8732C4.84838 22.8315 5.5436 23.6423 6.42713 24.2H3.23618C1.48638 18.6178 1.64843 14.4623 2.09963 11.945C2.23718 11.166 2.55135 10.4289 3.01803 9.79019C3.4847 9.15149 4.09149 8.62817 4.79183 8.2604L7.80123 6.66585C7.81912 7.39648 8.12169 8.09122 8.64445 8.60198C9.1672 9.11273 9.86878 9.39909 10.5996 9.4H12.1996C12.9305 9.39907 13.632 9.11272 14.1548 8.60198C14.6775 8.09124 14.9801 7.39651 14.998 6.6659L18.0074 8.2605C18.7078 8.62826 19.3145 9.15156 19.7812 9.79025C20.2479 10.4289 20.5621 11.166 20.6996 11.945C21.1508 14.4623 21.3129 18.6178 19.5631 24.2Z" stroke="black" stroke-width="0.8" mask="url(#path-1-outside-1)"/>
</svg>
