<svg width="43" height="43" viewBox="0 0 43 43" fill="none" xmlns="http://www.w3.org/2000/svg">
<path d="M42.9768 1.56071C42.9571 1.4063 42.923 1.25758 42.8666 1.11804C42.8648 1.11454 42.8648 1.10973 42.864 1.10536C42.864 1.10448 42.8631 1.10361 42.8622 1.10273C42.8001 0.95576 42.7152 0.822347 42.6194 0.698557C42.5958 0.66925 42.5726 0.640381 42.5477 0.612823C42.4454 0.497345 42.3342 0.390615 42.2052 0.303569C42.2017 0.300944 42.1973 0.300069 42.1938 0.297445C42.0692 0.21521 41.9314 0.153097 41.787 0.104106C41.7512 0.0914205 41.7162 0.080485 41.6794 0.0708618C41.5281 0.0297445 41.3724 0 41.2083 0H28.6667C27.6777 0 26.875 0.802663 26.875 1.79167C26.875 2.78067 27.6777 3.58333 28.6667 3.58333H36.8823L26.1887 14.2769C23.3372 11.9962 19.8264 10.75 16.125 10.75C7.23403 10.75 0 17.984 0 26.875C0 35.766 7.23403 43 16.125 43C25.016 43 32.25 35.766 32.25 26.875C32.25 23.1753 31.0047 19.6655 28.7222 16.8113L39.4167 6.11686V14.3333C39.4167 15.3223 40.2193 16.125 41.2083 16.125C42.1973 16.125 43 15.3223 43 14.3333V1.79167C43 1.75405 42.9912 1.71818 42.9891 1.68144C42.9864 1.64032 42.9821 1.60095 42.9768 1.56071ZM16.125 39.4167C9.20897 39.4167 3.58333 33.791 3.58333 26.875C3.58333 19.959 9.20897 14.3333 16.125 14.3333C19.4734 14.3333 22.6259 15.6368 24.9963 17.9989C27.3632 20.3741 28.6667 23.5266 28.6667 26.875C28.6667 33.791 23.041 39.4167 16.125 39.4167Z" fill="black"/>
</svg>
